<svg width="190" height="206" viewBox="0 0 190 206" fill="none" xmlns="http://www.w3.org/2000/svg">
<g clip-path="url(#clip0_4749_48185)">
<path d="M111.505 136.086L108.06 125.363L96.7565 128.995L100.202 139.718C107.042 161.008 99.226 182.634 82.774 187.92L153.747 165.116C137.294 170.398 118.346 157.376 111.505 136.086Z" fill="#F4CD0C"/>
<path d="M113.121 118.1L88.417 126.038L95.3101 147.491L120.014 139.554L113.121 118.1Z" fill="#E29418"/>
<path d="M153.746 165.112L82.7727 187.915L85.1017 195.164L156.075 172.361L153.746 165.112Z" fill="#E29418"/>
<path d="M20.2113 43.0247C20.471 43.8626 20.7164 44.7003 20.9861 45.5397C40.0651 104.921 77.9282 145.863 105.559 136.985C133.19 128.107 140.12 72.7736 121.041 13.3923C120.771 12.553 120.483 11.7291 120.206 10.8968L20.2113 43.0247Z" fill="#F4CD0C"/>
<path d="M137.613 30.5774L141.219 41.7994C149.041 66.1459 135.599 92.3145 111.253 100.137L79.4679 110.349C55.1214 118.172 28.9528 104.73 21.1304 80.3834L17.5248 69.1614L137.613 30.5774ZM143.444 19.225L6.17236 63.3301L12.5385 83.1439C21.8975 112.273 53.0996 128.3 82.2285 118.941L114.013 108.729C143.142 99.3699 159.17 68.1677 149.811 39.0389L143.444 19.225Z" fill="#F4CD0C"/>
<path d="M40.6277 39.2289C40.358 38.3895 40.104 37.5546 39.84 36.7181L20.2113 43.0247C20.471 43.8626 20.7164 44.7003 20.9861 45.5397C40.0651 104.921 77.9282 145.863 105.559 136.985C88.7756 142.378 59.7067 98.6101 40.6277 39.2289Z" fill="#FAEC0F"/>
<path d="M122.86 4.64411L14.446 39.4773L17.5897 49.2615L126.004 14.4284L122.86 4.64411Z" fill="#F4CD0C"/>
<path d="M35.745 32.6343L20.1108 37.6575L23.2545 47.4417L38.8886 42.4185L35.745 32.6343Z" fill="#FAEC0F"/>
<path d="M100.535 78.6344L94.905 80.4434L85.1007 49.9284C84.9956 49.6013 84.6486 49.4231 84.3215 49.5282L71.8813 53.5252C71.5542 53.6303 71.376 53.9772 71.4811 54.3044C72.4783 57.4079 70.7633 60.7466 67.6597 61.7437C67.3326 61.8488 67.1544 62.1958 67.2595 62.5229L69.258 68.743C69.3631 69.0702 69.71 69.2484 70.0372 69.1433C71.9828 68.5181 73.7287 67.4633 75.2402 66.0041L81.2841 84.815L75.6537 86.624C75.3266 86.7291 75.1483 87.0761 75.2535 87.4032L77.2519 93.6233C77.3571 93.9504 77.704 94.1287 78.0311 94.0235L102.916 86.0282C103.243 85.9231 103.421 85.5762 103.316 85.249L101.318 79.0289C101.209 78.7075 100.863 78.5293 100.535 78.6344Z" fill="#E29418"/>
</g>
<defs>
<clipPath id="clip0_4749_48185">
<rect width="144.229" height="170" fill="white" transform="translate(0 44.1189) rotate(-17.812)"/>
</clipPath>
</defs>
</svg>
